<svg xmlns="http://www.w3.org/2000/svg" viewBox="-1 -1 102 102" role="img" aria-label="userandproduct mark"><title>userandproduct mark</title><path fill="currentColor" d="M2.57 43.72 14.16 32.13C17.62 28.67 23.25 28.67 26.71 32.13L38.3 43.72C41.77 47.19 41.77 52.81 38.3 56.28L26.71 67.87C23.25 71.33 17.62 71.33 14.16 67.87L2.57 56.28C-0.9 52.81 -0.9 47.19 2.57 43.72ZM97.43 56.28 85.84 67.87C82.38 71.33 76.75 71.33 73.29 67.87L61.7 56.28C58.23 52.81 58.23 47.19 61.7 43.72L73.29 32.13C76.75 28.67 82.38 28.67 85.84 32.13L97.43 43.72C100.9 47.19 100.9 52.81 97.43 56.28ZM56.28 2.57 67.87 14.16C71.33 17.62 71.33 23.25 67.87 26.71L56.28 38.3C52.81 41.77 47.19 41.77 43.72 38.3L32.13 26.71C28.67 23.25 28.67 17.62 32.13 14.16L43.72 2.57C47.19 -0.9 52.81 -0.9 56.28 2.57ZM43.72 97.43 32.13 85.84C28.67 82.38 28.67 76.75 32.13 73.29L43.72 61.7C47.19 58.23 52.81 58.23 56.28 61.7L67.87 73.29C71.33 76.75 71.33 82.38 67.87 85.84L56.28 97.43C52.81 100.9 47.19 100.9 43.72 97.43ZM90.98 50 79.57 38.58 68.15 50 79.57 61.42ZM9.02 50 20.43 61.42 31.85 50 20.43 38.58ZM50 9.02 38.58 20.43 50 31.85 61.42 20.43ZM50 90.98 61.42 79.57 50 68.15 38.58 79.57Z"/></svg>