<svg xmlns="http://www.w3.org/2000/svg" viewBox="-4.5 -3 109 109" role="img" aria-label="userandproduct"><title>userandproduct</title><path fill="#14284B" d="M45.24 8.34C46.28 6.99 47.89 6.09 49.71 6.01L49.71 6.01C49.81 6 49.9 6 50 6C50.08 6 50.15 6 50.23 6C52.08 6.07 53.7 6.98 54.76 8.34L87.73 51.2C88.47 51.07 89.22 51 90 51C97.18 51 103 56.82 103 64C103 71.18 97.18 77 90 77C87.15 77 84.51 76.08 82.37 74.53L63 84.21C62.89 91.29 57.11 97 50 97C42.89 97 37.11 91.29 37 84.21L17.63 74.53C15.49 76.08 12.85 77 10 77C2.82 77 -3 71.18 -3 64C-3 56.82 2.82 51 10 51C10.78 51 11.53 51.07 12.27 51.2ZM78.21 58.52 56 29.65V72.46C56.57 72.76 57.11 73.1 57.63 73.47L77 63.79C77.03 61.91 77.46 60.12 78.21 58.52ZM44 29.65 21.79 58.52C22.54 60.12 22.97 61.91 23 63.79L42.37 73.47C42.89 73.1 43.43 72.76 44 72.46Z"/></svg>